<?xml version="1.0" encoding="utf-8"?>
<svg xmlns="http://www.w3.org/2000/svg" style="margin: auto; display: block; shape-rendering: auto; animation-play-state: running; animation-delay: 0s;" width="280" height="250" preserveAspectRatio="xMidYMid">
<style type="text/css" style="animation-play-state: running; animation-delay: 0s;">
  text {
    text-anchor: middle; font-size: 80px; opacity: 0;
  }
</style>
<g style="transform-origin: 140px 125px; transform: scale(1); animation-play-state: running; animation-delay: 0s;">
<g transform="translate(140,125)" style="animation-play-state: running; animation-delay: 0s;">
  <g transform="translate(0,0)" style="animation-play-state: running; animation-delay: 0s;"><g class="path" style="transform: matrix(1, 0, 0, 1, 0, 0); transform-origin: -105.74px -5.15629px; animation: 1s linear -0.55s infinite normal forwards running bounce-1b73b880-cbd5-41e8-bccd-c749483b8b82;"><path d="M42.81-3.59L42.81-3.59L42.81-3.59Q42.81-0.31 43.75 0.16L43.75 0.16L43.75 0.16Q44.30 0.39 45.23 0.39L45.23 0.39L45.23-14.38L43.36-14.38L43.36-14.38Q39.38-1.48 27.42-1.41L27.42-1.41L27.42-1.41Q17.27-1.41 13.59-11.64L13.59-11.64L13.59-11.64Q11.80-16.64 11.80-23.44L11.80-23.44L11.80-23.44Q11.80-38.05 19.84-43.28L19.84-43.28L19.84-43.28Q23.36-45.47 27.66-45.47L27.66-45.47L27.66-45.47Q37.42-45.47 41.80-36.25L41.80-36.25L41.80-36.25Q42.58-34.61 43.13-32.89L43.13-32.89L45-32.89L44.77-47.27L44.77-47.27Q43.05-47.27 42.66-46.17L42.66-46.17L42.66-46.17Q42.42-45.23 42.42-43.13L42.42-43.13L42.42-43.13Q40.16-45.39 34.69-46.80L34.69-46.80L34.69-46.80Q31.09-47.66 27.34-47.66L27.34-47.66L27.34-47.66Q15-47.66 8.44-38.52L8.44-38.52L8.44-38.52Q3.91-32.03 3.91-23.59L3.91-23.59L3.91-23.59Q3.91-13.36 10.23-6.41L10.23-6.41L10.23-6.41Q16.95 0.78 27.73 0.78L27.73 0.78L27.73 0.78Q35.63 0.70 42.81-3.59" fill="#51cacc" stroke="none" stroke-width="none" transform="translate(-130.30998039245605,18.283707221349086)" style="fill: rgb(81, 202, 204); animation-play-state: running; animation-delay: 0s;"></path></g><g class="path" style="transform: matrix(1, 0, 0, 1, 0, 0); transform-origin: -55.04px -4.96129px; animation: 1s linear -0.44s infinite normal forwards running bounce-1b73b880-cbd5-41e8-bccd-c749483b8b82;"><path d="M84.22-46.88L84.22-44.84L90.86-44.84L90.86-9.84L61.17-46.88L50.31-46.88L50.31-44.84L56.56-44.84L56.56-2.03L50.31-2.03L50.31 0L66.33 0L66.33 0Q66.33-1.72 65.08-1.95L65.08-1.95L65.08-1.95Q64.69-2.03 64.30-2.03L64.30-2.03L59.69-2.03L59.69-38.20L90.39 0.39L93.98-0.39L93.98-44.84L100.23-44.84L100.23-46.88L84.22-46.88" fill="#51cacc" stroke="none" stroke-width="none" transform="translate(-130.30998039245605,18.283707221349086)" style="fill: rgb(157, 248, 113); animation-play-state: running; animation-delay: 0s;"></path></g><g class="path" style="transform: matrix(1, 0, 0, 1, 0, 0); transform-origin: 2.38502px -4.96129px; animation: 1s linear -0.33s infinite normal forwards running bounce-1b73b880-cbd5-41e8-bccd-c749483b8b82;"><path d="M162.03-44.84L162.03-46.88L149.53-46.88L132.66-8.67L114.53-46.88L103.36-46.88L103.36-44.84L109.61-44.84L109.61-2.03L103.36-2.03L103.36 0L118.98 0L118.98 0Q118.98-1.72 117.73-1.95L117.73-1.95L117.73-1.95Q117.34-2.03 116.95-2.03L116.95-2.03L112.73-2.03L112.73-35.63L129.84 0.39L131.48 0.39L149.53-39.84L149.53-2.03L143.28-2.03L143.28 0L162.03 0L162.03 0Q162.03-1.72 160.78-1.95L160.78-1.95L160.78-1.95Q160.39-2.03 160-2.03L160-2.03L155.78-2.03L155.78-44.84L162.03-44.84" fill="#51cacc" stroke="none" stroke-width="none" transform="translate(-130.30998039245605,18.283707221349086)" style="fill: rgb(224, 255, 119); animation-play-state: running; animation-delay: 0s;"></path></g><g class="path" style="transform: matrix(1, 0, 0, 1, 0, 0); transform-origin: 41.955px 14.6487px; animation: 1s linear -0.22s infinite normal forwards running bounce-1b73b880-cbd5-41e8-bccd-c749483b8b82;"><path d="M176.25-3.59L176.25-3.59L176.25-3.59Q176.25-6.17 173.91-7.27L173.91-7.27L173.91-7.27Q173.13-7.66 172.27-7.66L172.27-7.66L172.27-7.66Q169.69-7.66 168.67-5.31L168.67-5.31L168.67-5.31Q168.28-4.45 168.28-3.59L168.28-3.59L168.28-3.59Q168.28-1.09 170.55 0L170.55 0L170.55 0Q171.41 0.39 172.27 0.39L172.27 0.39L172.27 0.39Q174.77 0.39 175.86-1.88L175.86-1.88L175.86-1.88Q176.25-2.73 176.25-3.59" fill="#51cacc" stroke="none" stroke-width="none" transform="translate(-130.30998039245605,18.283707221349086)" style="fill: rgb(222, 157, 214); animation-play-state: running; animation-delay: 0s;"></path></g><g class="path" style="transform: matrix(1, 0, 0, 1, 0, 0); transform-origin: 71.175px -5.15629px; animation: 1s linear -0.11s infinite normal forwards running bounce-1b73b880-cbd5-41e8-bccd-c749483b8b82;"><path d="M218.13-12.27L218.13-12.27L218.13-12.27Q218.13-19.22 210.63-23.44L210.63-23.44L210.63-23.44Q209.14-24.22 201.48-27.58L201.48-27.58L201.48-27.58Q194.53-30.55 192.73-33.67L192.73-33.67L192.73-33.67Q191.80-35.39 191.80-37.34L191.80-37.34L191.80-37.34Q191.80-42.58 196.88-44.61L196.88-44.61L196.88-44.61Q199.06-45.47 201.72-45.47L201.72-45.47L201.72-45.47Q208.28-45.47 211.72-41.02L211.72-41.02L211.72-41.02Q213.98-37.97 213.91-33.59L213.91-33.59L216.25-33.59L216.25-47.27L216.25-47.27Q214.38-47.27 214.06-46.09L214.06-46.09L214.06-46.09Q213.91-45.55 213.91-44.61L213.91-44.61L213.91-44.61Q208.36-47.66 201.41-47.66L201.41-47.66L201.41-47.66Q192.97-47.66 188.28-42.97L188.28-42.97L188.28-42.97Q185.16-39.69 185.16-35.31L185.16-35.31L185.16-35.31Q185.16-28.75 192.50-24.61L192.50-24.61L192.50-24.61Q193.83-23.91 201.41-20.63L201.41-20.63L201.41-20.63Q208.44-17.50 210.31-14.30L210.31-14.30L210.31-14.30Q211.33-12.50 211.33-10.39L211.33-10.39L211.33-10.39Q211.33-4.92 206.02-2.50L206.02-2.50L206.02-2.50Q203.52-1.41 200.47-1.41L200.47-1.41L200.47-1.41Q188.52-1.56 187.19-16.02L187.19-16.02L184.84-16.02L184.84 0.16L184.84 0.16Q186.72 0.16 187.03-0.94L187.03-0.94L187.03-0.94Q187.19-1.56 187.19-3.20L187.19-3.20L187.19-3.20Q193.20 0.78 200.86 0.78L200.86 0.78L200.86 0.78Q209.84 0.78 214.77-4.06L214.77-4.06L214.77-4.06Q218.13-7.50 218.13-12.27" fill="#51cacc" stroke="none" stroke-width="none" transform="translate(-130.30998039245605,18.283707221349086)" style="fill: rgb(255, 112, 142); animation-play-state: running; animation-delay: 0s;"></path></g><g class="path" style="transform: matrix(1, 0, 0, 1, 0, 0); transform-origin: 114.535px -5.15629px; animation: 1s linear 0s infinite normal forwards running bounce-1b73b880-cbd5-41e8-bccd-c749483b8b82;"><path d="M261.56-36.25L261.56-36.25L261.56-36.25Q261.56-42.19 255.94-45.08L255.94-45.08L255.94-45.08Q252.27-46.88 247.11-46.88L247.11-46.88L225.16-46.88L225.16-44.84L231.41-44.84L231.41-2.03L225.16-2.03L225.16 0L247.34 0L247.34 0Q257.42 0 262.11-6.41L262.11-6.41L262.11-6.41Q264.53-9.77 264.53-13.75L264.53-13.75L264.53-13.75Q264.53-20 258.98-23.44L258.98-23.44L258.98-23.44Q256.41-24.92 253.05-25.55L253.05-25.55L253.05-25.55Q258.67-27.66 260.78-32.66L260.78-32.66L260.78-32.66Q261.56-34.53 261.56-36.25zM238.13-44.84L245.23-44.84L245.23-44.84Q253.28-44.84 254.38-37.73L254.38-37.73L254.38-37.73Q254.53-36.72 254.53-35.63L254.53-35.63L254.53-35.63Q254.53-30.55 250.55-27.97L250.55-27.97L250.55-27.97Q248.20-26.48 245.08-26.48L245.08-26.48L238.13-26.48L238.13-44.84zM238.13-24.38L246.56-24.38L246.56-24.38Q253.67-24.38 256.09-18.36L256.09-18.36L256.09-18.36Q257.03-16.17 257.03-13.59L257.03-13.59L257.03-13.59Q257.03-7.58 253.13-4.22L253.13-4.22L253.13-4.22Q250.55-2.03 246.95-2.03L246.95-2.03L238.13-2.03L238.13-24.38" fill="#51cacc" stroke="none" stroke-width="none" transform="translate(-130.30998039245605,18.283707221349086)" style="fill: rgb(81, 202, 204); animation-play-state: running; animation-delay: 0s;"></path></g></g>
</g>
</g>
<style id="bounce-1b73b880-cbd5-41e8-bccd-c749483b8b82" data-anikit="">@keyframes bounce-1b73b880-cbd5-41e8-bccd-c749483b8b82
{
  0% {
    animation-timing-function: cubic-bezier(0.1361,0.2514,0.2175,0.8786);
    transform: translate(0,0px) scaleY(1);
  }
  37% {
    animation-timing-function: cubic-bezier(0.7674,0.1844,0.8382,0.7157);
    transform: translate(0,-39.96px) scaleY(1);
  }
  72% {
    animation-timing-function: cubic-bezier(0.1118,0.2149,0.2172,0.941);
    transform: translate(0,0px) scaleY(1);
  }
  87% {
    animation-timing-function: cubic-bezier(0.7494,0.2259,0.8209,0.6963);
    transform: translate(0,19.900000000000002px) scaleY(0.602);
  }
  100% {
    transform: translate(0,0px) scaleY(1);
  }
}</style></svg>